<svg width="100" height="50" viewBox="0 0 100 50" fill="none" xmlns="http://www.w3.org/2000/svg">
<g clip-path="url(#clip0_2300_502)">
<path d="M71.7488 14.2272C71.2769 15.7797 71.1462 17.416 71.3656 19.0239C71.585 20.6318 72.1494 22.1731 73.0201 23.5421C73.8907 24.9111 75.0469 26.0754 76.4095 26.9551C77.772 27.8347 79.3086 28.409 80.9137 28.6384C81.4413 28.7124 81.9734 28.7496 82.5061 28.75C83.6137 28.7516 84.7153 28.5893 85.7753 28.2681C85.1358 30.3388 83.917 32.1829 82.2631 33.582C80.6091 34.9811 78.5894 35.8767 76.4427 36.1628C75.9681 36.2206 75.4905 36.2498 75.0123 36.25C72.3127 36.2559 69.701 35.2892 67.6549 33.5265C65.6087 31.7639 64.2648 29.3232 63.8687 26.6505C63.4727 23.9778 64.0509 21.2517 65.4978 18.9706C66.9447 16.6895 69.1636 15.0057 71.7488 14.2272ZM75.0123 10C74.3193 10.0003 73.6271 10.0473 72.9403 10.1406C69.1765 10.6601 65.7502 12.5908 63.3546 15.5423C60.959 18.4938 59.7728 22.2458 60.036 26.0393C60.2993 29.8327 61.9923 33.3846 64.7726 35.9763C67.5528 38.5681 71.2129 40.0063 75.0123 40C75.6417 39.9999 76.2705 39.9614 76.8952 39.8847C80.1598 39.4653 83.1965 37.9846 85.5387 35.6701C87.8809 33.3556 89.3989 30.3355 89.8594 27.0737C89.955 26.3691 90.0019 25.6586 89.9999 24.9475C89.9984 24.7042 89.9485 24.4636 89.8531 24.2397C89.7578 24.0159 89.6189 23.8132 89.4445 23.6436C89.2702 23.474 89.0638 23.3408 88.8376 23.2518C88.6113 23.1627 88.3696 23.1196 88.1265 23.125C87.7106 23.1255 87.3062 23.2614 86.9743 23.5122C85.6852 24.4792 84.1172 25.0013 82.5061 25C82.1458 24.9999 81.7858 24.9748 81.4289 24.925C80.1433 24.7397 78.9279 24.2229 77.9022 23.4254C76.8764 22.6279 76.0755 21.5771 75.5782 20.3762C75.0808 19.1753 74.9041 17.8656 75.0654 16.5757C75.2266 15.2857 75.7203 14.06 76.498 13.0187C76.6884 12.7395 76.8024 12.4152 76.8286 12.0781C76.8548 11.741 76.7923 11.403 76.6473 11.0976C76.5023 10.7922 76.2799 10.5302 76.0023 10.3376C75.7246 10.145 75.4014 10.0286 75.0648 10H75.0123Z" fill="#333333"/>
<path d="M25 10.3027C16.8066 10.3027 10.1367 16.9727 10.1367 25.166C10.1367 33.3594 16.8066 40.0293 25 40.0293C33.1934 40.0293 39.8633 33.3594 39.8633 25.166C39.8633 16.9629 33.1934 10.3027 25 10.3027ZM25 36.0352C19.0039 36.0352 14.1211 31.1523 14.1211 25.1563C14.1211 19.1602 19.0039 14.2773 25 14.2773C30.9961 14.2773 35.8789 19.1602 35.8789 25.1563C35.8789 31.1523 30.9961 36.0352 25 36.0352Z" fill="#333333"/>
<path d="M25 7.30469C26.1035 7.30469 26.9922 6.41602 26.9922 5.3125V3.06641C26.9922 1.96289 26.1035 1.07422 25 1.07422C23.8965 1.07422 23.0078 1.96289 23.0078 3.06641V5.3125C23.0078 6.41602 23.8965 7.30469 25 7.30469Z" fill="#333333"/>
<path d="M25 42.6953C23.8965 42.6953 23.0078 43.584 23.0078 44.6875V46.9238C23.0078 48.0273 23.8965 48.916 25 48.916C26.1035 48.916 26.9922 48.0273 26.9922 46.9238V44.6875C26.9922 43.5937 26.1035 42.6953 25 42.6953Z" fill="#333333"/>
<path d="M46.9336 23.0078H44.6875C43.584 23.0078 42.6953 23.8965 42.6953 25C42.6953 26.1035 43.584 26.9922 44.6875 26.9922H46.9336C48.0371 26.9922 48.9258 26.1035 48.9258 25C48.9258 23.8965 48.0371 23.0078 46.9336 23.0078Z" fill="#333333"/>
<path d="M5.3125 23.0078H3.06641C1.96289 23.0078 1.07422 23.8965 1.07422 25C1.07422 26.1035 1.96289 26.9922 3.06641 26.9922H5.30273C6.40625 26.9922 7.29492 26.1035 7.29492 25C7.30469 23.8965 6.40625 23.0078 5.3125 23.0078Z" fill="#333333"/>
<path d="M39.1016 8.08594L37.5098 9.66797C36.7285 10.4492 36.7285 11.709 37.5098 12.4902C38.291 13.2715 39.5508 13.2715 40.332 12.4902L41.9141 10.9082C42.6953 10.127 42.6953 8.86719 41.9141 8.08594C41.1328 7.30469 39.873 7.30469 39.1016 8.08594Z" fill="#333333"/>
<path d="M9.66797 37.5098L8.08594 39.0918C7.30469 39.8731 7.30469 41.1328 8.08594 41.9141C8.86719 42.6953 10.127 42.6953 10.9082 41.9141L12.4902 40.332C13.2715 39.5508 13.2715 38.291 12.4902 37.5098C11.709 36.7285 10.4492 36.7383 9.66797 37.5098Z" fill="#333333"/>
<path d="M40.332 37.5098C39.5508 36.7285 38.291 36.7285 37.5098 37.5098C36.7285 38.291 36.7285 39.5508 37.5098 40.332L39.0918 41.9141C39.873 42.6953 41.1328 42.6953 41.9141 41.9141C42.6953 41.1328 42.6953 39.873 41.9141 39.0918L40.332 37.5098Z" fill="#333333"/>
<path d="M9.66797 12.4902C10.4492 13.2715 11.709 13.2715 12.4902 12.4902C13.2715 11.709 13.2715 10.4492 12.4902 9.66797L10.9082 8.08594C10.127 7.30469 8.86719 7.30469 8.08594 8.08594C7.30469 8.86719 7.30469 10.127 8.08594 10.9082L9.66797 12.4902Z" fill="#333333"/>
</g>
<defs>
<clipPath id="clip0_2300_502">
<rect width="100" height="50" fill="white"/>
</clipPath>
</defs>
</svg>
